<?xml version="1.0" standalone="no"?>
<!DOCTYPE svg PUBLIC "-//W3C//DTD SVG 20010904//EN"
 "http://www.w3.org/TR/2001/REC-SVG-20010904/DTD/svg10.dtd">
<svg version="1.0" xmlns="http://www.w3.org/2000/svg"
 width="750.000000pt" height="750.000000pt" viewBox="0 0 750.000000 750.000000"
 preserveAspectRatio="xMidYMid meet">
<metadata>
Created by potrace 1.11, written by Peter Selinger 2001-2013
</metadata>
<g transform="translate(0.000000,750.000000) scale(0.100000,-0.100000)"
fill="#000000" stroke="none">
<path d="M3575 6568 c-44 -5 -127 -20 -185 -34 -557 -133 -988 -523 -1168
-1059 -118 -350 -119 -685 -2 -1036 36 -110 94 -239 106 -239 9 0 324 291 324
299 0 4 -16 44 -35 88 -147 340 -132 747 40 1070 172 323 456 544 816 634 83
21 116 24 289 23 177 0 204 -3 291 -26 359 -97 630 -306 798 -618 177 -330
195 -739 46 -1083 -19 -44 -35 -84 -35 -88 0 -6 268 -253 312 -287 15 -12 20
-7 47 45 38 76 106 278 125 373 93 459 -14 929 -298 1305 -340 451 -910 696
-1471 633z"/>
<path d="M3662 5775 c-136 -38 -228 -123 -273 -252 -29 -82 -23 -206 13 -284
80 -175 277 -266 459 -213 109 32 200 110 247 213 37 79 42 203 14 284 -66
187 -277 303 -460 252z m178 -237 c76 -52 99 -132 61 -210 -29 -60 -77 -91
-144 -92 -69 -1 -118 29 -148 90 -54 112 22 234 146 234 38 0 61 -6 85 -22z"/>
<path d="M3500 4633 c-568 -87 -1039 -397 -1341 -883 -115 -186 -211 -452
-250 -695 -18 -106 -18 -427 0 -535 65 -413 241 -760 531 -1050 290 -290 635
-464 1055 -531 102 -17 416 -17 520 0 322 51 618 175 870 365 102 77 273 248
352 351 379 501 484 1161 277 1747 -266 753 -978 1253 -1777 1247 -78 -1 -185
-8 -237 -16z m455 -437 c175 -27 303 -68 458 -148 379 -195 646 -550 739 -981
29 -135 31 -395 5 -537 -84 -451 -373 -827 -792 -1030 -625 -302 -1400 -91
-1787 484 -258 386 -317 855 -162 1291 34 95 125 265 187 350 188 257 480 458
782 536 184 48 398 61 570 35z"/>
</g>
</svg>
